<svg width="196" height="196" viewBox="0 0 196 196" fill="none" xmlns="http://www.w3.org/2000/svg">
<rect width="196" height="196" fill="white"/>
<g filter="url(#filter0_d_428_104)">
<path d="M66.375 144V53.5H101C120.625 53.5 130.375 63.5 130.375 77C130.375 88 123.375 94.125 114.5 96.25V97.125C124.125 97.625 133.875 105.625 133.875 119.375C133.875 133.5 123.75 144 103 144H66.375ZM100.5 130.375C112.375 130.375 117.375 125.25 117.375 118.125C117.375 110 111 103.75 100.875 103.75H82.625V130.375H100.5ZM99 92C107.625 92 114.125 87 114.125 79C114.125 72 109.125 67 99.375 67H82.625V92H99Z" fill="black"/>
</g>
<defs>
<filter id="filter0_d_428_104" x="60.375" y="49.5" width="79.5" height="102.5" filterUnits="userSpaceOnUse" color-interpolation-filters="sRGB">
<feFlood flood-opacity="0" result="BackgroundImageFix"/>
<feColorMatrix in="SourceAlpha" type="matrix" values="0 0 0 0 0 0 0 0 0 0 0 0 0 0 0 0 0 0 127 0" result="hardAlpha"/>
<feOffset dy="2"/>
<feGaussianBlur stdDeviation="3"/>
<feComposite in2="hardAlpha" operator="out"/>
<feColorMatrix type="matrix" values="0 0 0 0 0 0 0 0 0 0 0 0 0 0 0 0 0 0 0.15 0"/>
<feBlend mode="normal" in2="BackgroundImageFix" result="effect1_dropShadow_428_104"/>
<feBlend mode="normal" in="SourceGraphic" in2="effect1_dropShadow_428_104" result="shape"/>
</filter>
</defs>
</svg>
