<svg width="64" height="64" viewBox="0 0 64 64" fill="none" xmlns="http://www.w3.org/2000/svg">
<circle cx="32" cy="32" r="31" fill="black" stroke="black" stroke-width="2"/>
<path d="M24.5312 43.3125C19.5 43.3125 16.625 39.0938 16.625 31.6875C16.625 24.3438 19.5625 20.0625 24.5312 20.0625C29.5 20.0625 32.4375 24.3438 32.4375 31.6875C32.4375 39.0938 29.5312 43.3125 24.5312 43.3125ZM24.5312 40.8125C27.7812 40.8125 29.6875 37.5312 29.6875 31.6875C29.6875 25.8438 27.7812 22.5 24.5312 22.5C21.2812 22.5 19.3438 25.8438 19.3438 31.6875C19.3438 37.5312 21.25 40.8125 24.5312 40.8125ZM44.1875 20.375V43H41.3438V23.3125H41.2188L35.7188 26.9688V24.125L41.3438 20.375H44.1875Z" fill="white"/>
</svg>
