<svg width="64" height="64" viewBox="0 0 64 64" fill="none" xmlns="http://www.w3.org/2000/svg">
<circle cx="32" cy="32" r="31" fill="black" stroke="black" stroke-width="2"/>
<path d="M21.5312 43.3125C16.5 43.3125 13.625 39.0938 13.625 31.6875C13.625 24.3438 16.5625 20.0625 21.5312 20.0625C26.5 20.0625 29.4375 24.3438 29.4375 31.6875C29.4375 39.0938 26.5312 43.3125 21.5312 43.3125ZM21.5312 40.8125C24.7812 40.8125 26.6875 37.5312 26.6875 31.6875C26.6875 25.8438 24.7812 22.5 21.5312 22.5C18.2812 22.5 16.3438 25.8438 16.3438 31.6875C16.3438 37.5312 18.25 40.8125 21.5312 40.8125ZM32.625 38.375V36.0625L42.8125 20.375H46.2812V35.9062H49.4375V38.375H46.2812V43H43.5938V38.375H32.625ZM35.6562 35.9062H43.5938V23.9375H43.3125L35.6562 35.7188V35.9062Z" fill="white"/>
</svg>
