<svg width="64" height="64" viewBox="0 0 64 64" fill="none" xmlns="http://www.w3.org/2000/svg">
<circle cx="32" cy="32" r="31" fill="black" stroke="black" stroke-width="2"/>
<path d="M22.5312 43.3125C17.5 43.3125 14.625 39.0938 14.625 31.6875C14.625 24.3438 17.5625 20.0625 22.5312 20.0625C27.5 20.0625 30.4375 24.3438 30.4375 31.6875C30.4375 39.0938 27.5312 43.3125 22.5312 43.3125ZM22.5312 40.8125C25.7812 40.8125 27.6875 37.5312 27.6875 31.6875C27.6875 25.8438 25.7812 22.5 22.5312 22.5C19.2812 22.5 17.3438 25.8438 17.3438 31.6875C17.3438 37.5312 19.25 40.8125 22.5312 40.8125ZM34.1875 43L34.1562 40.9375L41.875 32.8125C44.5625 29.9688 45.8438 28.4375 45.8438 26.3438C45.8438 24.0312 43.875 22.5 41.3438 22.5C38.6562 22.5 36.9375 24.2188 36.9375 26.75H34.2812C34.25 22.75 37.3438 20.0625 41.4375 20.0625C45.5312 20.0625 48.4688 22.8125 48.4688 26.3438C48.4688 28.875 47.2812 30.8438 43.2812 34.9688L38.0938 40.3125V40.5H48.875V43H34.1875Z" fill="white"/>
</svg>
