<svg width="64" height="64" viewBox="0 0 64 64" fill="none" xmlns="http://www.w3.org/2000/svg">
<circle cx="32" cy="32" r="31" fill="black" stroke="black" stroke-width="2"/>
<path d="M22.5312 43.3125C17.5 43.3125 14.625 39.0938 14.625 31.6875C14.625 24.3438 17.5625 20.0625 22.5312 20.0625C27.5 20.0625 30.4375 24.3438 30.4375 31.6875C30.4375 39.0938 27.5312 43.3125 22.5312 43.3125ZM22.5312 40.8125C25.7812 40.8125 27.6875 37.5312 27.6875 31.6875C27.6875 25.8438 25.7812 22.5 22.5312 22.5C19.2812 22.5 17.3438 25.8438 17.3438 31.6875C17.3438 37.5312 19.25 40.8125 22.5312 40.8125ZM42 43.3125C37.5 43.3125 34.2812 40.9062 34.125 37.3125H36.9688C37.125 39.4688 39.2812 40.8125 41.9688 40.8125C44.9375 40.8125 47.125 39.1875 47.125 36.8438C47.125 34.375 45.1562 32.625 41.625 32.625H39.7812V30.1562H41.625C44.375 30.1562 46.2812 28.625 46.2812 26.2812C46.2812 24.0312 44.625 22.5 42.0625 22.5C39.6562 22.5 37.4375 23.8438 37.3125 26.0625H34.5938C34.75 22.4688 38.0625 20.0625 42.0938 20.0625C46.4062 20.0625 49.0312 22.875 49 26.125C49.0312 28.6875 47.5312 30.5938 45.1562 31.25V31.4062C48.0938 31.875 49.9062 33.9688 49.875 36.8438C49.9062 40.5625 46.5 43.3125 42 43.3125Z" fill="white"/>
</svg>
