<svg width="25" height="24" viewBox="0 0 25 24" fill="none" xmlns="http://www.w3.org/2000/svg">
<path d="M16.5011 8.61597V5.61597H8.50113V8.61597H7.50113V4.61597H17.5011V8.61597H16.5011ZM18.1161 12.116C18.3995 12.116 18.6371 12.02 18.8291 11.828C19.0211 11.636 19.1168 11.3986 19.1161 11.116C19.1155 10.8333 19.0198 10.5956 18.8291 10.403C18.6385 10.2103 18.4008 10.1143 18.1161 10.115C17.8315 10.1156 17.5941 10.2116 17.4041 10.403C17.2141 10.5943 17.1181 10.832 17.1161 11.116C17.1141 11.4 17.2101 11.6373 17.4041 11.828C17.5981 12.0186 17.8348 12.1146 18.1161 12.116ZM16.5011 19V14.462H8.50113V19H16.5011ZM17.5011 20H7.50113V16H4.07812V10.616C4.07812 10.0493 4.27046 9.5743 4.65512 9.19097C5.03979 8.80763 5.51413 8.61563 6.07813 8.61497H18.9241C19.4908 8.61497 19.9658 8.80697 20.3491 9.19097C20.7325 9.57497 20.9241 10.0496 20.9241 10.615V16H17.5011V20ZM19.9241 15V10.616C19.9241 10.3326 19.8285 10.095 19.6371 9.90297C19.4458 9.71097 19.2081 9.61497 18.9241 9.61497H6.07813C5.79479 9.61497 5.55746 9.71097 5.36612 9.90297C5.17479 10.095 5.07879 10.3326 5.07813 10.616V15H7.50113V13.462H17.5011V15H19.9241Z" fill="black"/>
</svg>
