<svg width="40" height="41" viewBox="0 0 40 41" fill="none" xmlns="http://www.w3.org/2000/svg">
<path fill-rule="evenodd" clip-rule="evenodd" d="M26.3458 13.123H14.5646C12.8971 13.123 11.5391 14.4868 11.5391 16.1486V23.4717C11.5391 25.1392 12.9028 26.4972 14.5646 26.4972H18.7247L19.4409 27.7349L20.1457 28.9554C20.2718 29.1789 20.5927 29.1789 20.7245 28.9554L21.4293 27.7349L22.1456 26.4972H26.3515C28.019 26.4972 29.377 25.1334 29.377 23.4717V16.1543C29.377 14.4868 28.0132 13.123 26.3458 13.123ZM21.2792 18.4863C20.3681 18.4863 19.6289 19.2141 19.6289 20.1137C19.6289 21.0133 20.3681 21.7411 21.2792 21.7411C22.1903 21.7411 22.9295 21.0133 22.9295 20.1137C22.9295 19.2141 22.196 18.4863 21.2792 18.4863ZM21.2792 20.893C20.8437 20.893 20.4884 20.5435 20.4884 20.1137C20.4884 19.6839 20.8437 19.3344 21.2792 19.3344C21.7147 19.3344 22.0699 19.6839 22.0699 20.1137C22.0699 20.5435 21.7204 20.893 21.2792 20.893ZM15.1141 18.8583C15.3719 18.6234 15.7043 18.4858 16.0596 18.4858C16.8847 18.4858 17.5437 19.2193 17.5437 20.1189C17.5437 21.0186 16.879 21.7463 16.0596 21.7463C15.6986 21.7463 15.3719 21.6031 15.1141 21.3738V21.6661H14.1973V17.5117H15.1141V18.8583ZM15.1198 20.4341C15.2459 20.7263 15.5381 20.9269 15.8762 20.9269C16.3346 20.9269 16.7013 20.5659 16.7013 20.1132C16.7013 19.6605 16.3346 19.2995 15.8762 19.2995C15.5381 19.2995 15.2459 19.5001 15.1198 19.7923C15.074 19.8897 15.0511 19.9986 15.0511 20.1132C15.0511 20.2278 15.0797 20.3367 15.1198 20.4341ZM25.7905 18.5572V18.815C25.5327 18.6145 25.2118 18.4941 24.868 18.4941C24.0256 18.4941 23.3438 19.1989 23.3438 20.0642C23.3438 20.9295 24.0256 21.6343 24.868 21.6343C25.2175 21.6343 25.5384 21.5139 25.7905 21.3134V21.7489C25.7905 21.7489 25.6988 22.1786 25.0571 22.1786V22.9866C25.0571 22.9866 25.7504 23.0668 26.3693 22.4479C26.3693 22.4479 26.6558 22.1442 26.7188 21.7431V18.5572H25.7905ZM25.0399 20.8607C24.5757 20.8607 24.2033 20.4997 24.2033 20.0585C24.2033 19.6172 24.5815 19.2563 25.0399 19.2563C25.3665 19.2563 25.653 19.4396 25.7905 19.7032C25.8478 19.8121 25.8765 19.9324 25.8765 20.0585C25.8765 20.1845 25.8421 20.3106 25.7905 20.4137C25.653 20.6831 25.3665 20.8607 25.0399 20.8607ZM17.6465 18.2638V17.4329C17.6465 17.4329 18.2539 17.3527 18.7925 17.9888C18.7925 17.9888 19.0389 18.2982 19.0962 18.7108V18.7337V21.6675H18.1507V18.7337C18.0705 18.3211 17.6465 18.2638 17.6465 18.2638Z" fill="#676767"/>
</svg>
