<svg width="24" height="24" viewBox="0 0 24 24" fill="none" xmlns="http://www.w3.org/2000/svg">
<path d="M12 13C12.7956 13 13.5587 12.6839 14.1213 12.1213C14.6839 11.5587 15 10.7956 15 10C15 9.20435 14.6839 8.44129 14.1213 7.87868C13.5587 7.31607 12.7956 7 12 7C11.2044 7 10.4413 7.31607 9.87868 7.87868C9.31607 8.44129 9 9.20435 9 10C9 10.7956 9.31607 11.5587 9.87868 12.1213C10.4413 12.6839 11.2044 13 12 13Z" stroke="black" stroke-width="2" stroke-linecap="round" stroke-linejoin="round"/>
<path d="M17.7993 13.9379H17.7883C18.5102 12.8799 18.9279 11.6441 18.996 10.3651C19.0641 9.08607 18.7799 7.81289 18.1745 6.68419C17.5691 5.55548 16.6656 4.61452 15.5624 3.96376C14.4592 3.31299 13.1987 2.97739 11.9179 2.99347C10.6372 3.00956 9.38546 3.37673 8.29898 4.05499C7.21249 4.73326 6.33292 5.69662 5.75605 6.84018C5.17917 7.98373 4.92712 9.26364 5.02732 10.5405C5.12752 11.8174 5.57613 13.0424 6.32432 14.0819H6.30832L6.44832 14.2529C6.54832 14.3796 6.64832 14.5033 6.74832 14.6239L11.9993 20.9999L17.1293 14.7519C17.3233 14.5426 17.5033 14.3229 17.6693 14.0929L17.7993 13.9379Z" stroke="black" stroke-width="2" stroke-linecap="round" stroke-linejoin="round"/>
</svg>
