<svg xmlns="http://www.w3.org/2000/svg" width="1000" height="1000" viewBox="0 0 264.58333 264.58334"><circle cx="132.29166" cy="132.29167" r="132.11478" style="opacity:.993;fill:#cd7c2f;stroke:none;stroke-width:.353792;stroke-linecap:round;stroke-linejoin:round;fill-opacity:1"/><g style="font-style:normal;font-variant:normal;font-weight:900;font-stretch:normal;font-size:240.16px;font-family:&quot;Noto Sans CJK KR&quot;;letter-spacing:0;word-spacing:0;fill:#fff;fill-opacity:1;stroke:none;stroke-width:.400267"><path d="M172.879 51.838c-3.603 0-8.406 0-14.89.72-22.335 1.682-41.308 9.367-55.477 23.056-16.331 15.37-27.138 39.626-27.138 69.646 0 38.666 20.894 67.485 58.839 67.485 33.142 0 54.997-25.937 54.997-55.717 0-31.701-20.894-50.914-47.792-50.914-15.61 0-27.379 6.244-35.064 15.13h-.72c3.842-21.614 19.453-41.547 52.355-45.39 5.764-.72 10.567-.96 14.89-.72zm-38.906 138.813c-19.213 0-28.82-16.812-29.3-37.465 0-4.083.72-6.965 1.922-9.367 4.563-9.366 14.41-16.09 25.456-16.09 17.292 0 27.139 12.728 27.139 30.98 0 18.733-9.847 31.942-24.977 31.942z" style="font-style:normal;font-variant:normal;font-weight:600;font-stretch:normal;font-size:240.16px;font-family:&quot;Myriad Pro&quot;;text-align:center;text-anchor:middle;fill:#fff;fill-opacity:1;stroke-width:.400267"/></g></svg>