<svg width="40" height="41" viewBox="0 0 40 41" fill="none" xmlns="http://www.w3.org/2000/svg">
<path d="M20.3073 18.457C18.8659 18.457 17.6406 19.6823 17.6406 21.1237C17.6406 22.5651 18.8659 23.7904 20.3073 23.7904C21.7487 23.7904 22.974 22.5651 22.974 21.1237C22.974 19.6823 21.7487 18.457 20.3073 18.457Z" fill="#676767"/>
<path d="M23.7268 13.123H16.9631C14.345 13.123 12.3086 15.1594 12.3086 17.7049V24.4685C12.3086 27.0867 14.345 29.123 16.9631 29.123H23.7268C26.2722 29.123 28.3086 27.0867 28.3086 24.4685V17.7049C28.3086 15.1594 26.2722 13.123 23.7268 13.123ZM20.3086 25.3412C17.9813 25.3412 16.1631 23.4503 16.1631 21.1958C16.1631 18.9412 17.9813 16.9776 20.3086 16.9776C22.6359 16.9776 24.454 18.8685 24.454 21.123C24.454 23.3776 22.6359 25.3412 20.3086 25.3412ZM24.5995 17.8503C24.0904 17.8503 23.654 17.414 23.654 16.9049C23.654 16.3958 24.0904 15.9594 24.5995 15.9594C25.1086 15.9594 25.545 16.3958 25.545 16.9049C25.545 17.414 25.1086 17.8503 24.5995 17.8503Z" fill="#676767"/>
</svg>
