<svg width="25" height="24" viewBox="0 0 25 24" fill="none" xmlns="http://www.w3.org/2000/svg">
<path d="M17.11 21C16.4473 21 15.885 20.7683 15.423 20.305C14.9617 19.841 14.731 19.2777 14.731 18.615C14.731 18.515 14.775 18.2627 14.863 17.858L7.666 13.585C7.45 13.8343 7.18567 14.03 6.873 14.172C6.56033 14.314 6.22467 14.385 5.866 14.385C5.20867 14.385 4.65 14.151 4.19 13.683C3.73 13.215 3.5 12.654 3.5 12C3.5 11.346 3.73 10.785 4.19 10.317C4.65 9.849 5.20867 9.615 5.866 9.615C6.224 9.615 6.55967 9.686 6.873 9.828C7.18633 9.97 7.45067 10.166 7.666 10.416L14.864 6.161C14.8173 6.03167 14.7837 5.90333 14.763 5.776C14.7417 5.648 14.731 5.51733 14.731 5.384C14.731 4.722 14.9633 4.159 15.428 3.695C15.8927 3.23167 16.4567 3 17.12 3C17.7833 3 18.346 3.23233 18.808 3.697C19.27 4.16167 19.5007 4.72567 19.5 5.389C19.4993 6.05233 19.2677 6.615 18.805 7.077C18.3423 7.539 17.779 7.76967 17.115 7.769C16.7537 7.769 16.4203 7.695 16.115 7.547C15.8097 7.399 15.5497 7.2 15.335 6.95L8.136 11.223C8.18267 11.3523 8.21633 11.481 8.237 11.609C8.25833 11.7363 8.269 11.8667 8.269 12C8.269 12.1333 8.25833 12.2637 8.237 12.391C8.21567 12.5183 8.18233 12.647 8.137 12.777L15.335 17.05C15.5503 16.8 15.8103 16.601 16.115 16.453C16.4203 16.305 16.7537 16.231 17.115 16.231C17.7777 16.231 18.341 16.463 18.805 16.927C19.2683 17.3923 19.5 17.9567 19.5 18.62C19.5 19.2833 19.2677 19.846 18.803 20.308C18.3383 20.77 17.7733 21.0007 17.11 21ZM17.115 20C17.5077 20 17.8367 19.8673 18.102 19.602C18.3673 19.3367 18.5 19.008 18.5 18.616C18.5 18.224 18.3673 17.895 18.102 17.629C17.8367 17.363 17.508 17.2303 17.116 17.231C16.724 17.2317 16.395 17.3643 16.129 17.629C15.863 17.8937 15.7303 18.2223 15.731 18.615C15.7317 19.0077 15.8643 19.3367 16.129 19.602C16.3937 19.8673 16.7217 20 17.115 20ZM5.866 13.384C6.26333 13.384 6.59667 13.2513 6.866 12.986C7.13467 12.7207 7.269 12.392 7.269 12C7.269 11.608 7.13467 11.2793 6.866 11.014C6.59733 10.7487 6.264 10.616 5.866 10.616C5.47867 10.616 5.15433 10.7487 4.893 11.014C4.63167 11.2793 4.50067 11.608 4.5 12C4.49933 12.392 4.63033 12.721 4.893 12.987C5.15567 13.253 5.48 13.3853 5.866 13.384ZM17.116 6.769C17.508 6.769 17.8367 6.63633 18.102 6.371C18.3673 6.10567 18.5 5.77667 18.5 5.384C18.5 4.99133 18.3673 4.66267 18.102 4.398C17.8367 4.13333 17.508 4.00067 17.116 4C16.724 3.99933 16.395 4.132 16.129 4.398C15.863 4.664 15.7303 4.993 15.731 5.385C15.7317 5.777 15.8643 6.10567 16.129 6.371C16.3937 6.63633 16.7227 6.769 17.116 6.769Z" fill="black"/>
</svg>
