<svg width="24" height="24" viewBox="0 0 24 24" fill="none" xmlns="http://www.w3.org/2000/svg">
<path d="M12.0009 22.2455C17.5959 22.2455 22.2463 17.6049 22.2463 12.0001C22.2463 6.40507 17.5856 1.75464 11.9906 1.75464C6.38615 1.75464 1.75586 6.40507 1.75586 12.0001C1.75586 17.6049 6.396 22.2455 12.0009 22.2455ZM12.0013 20.5381C7.25957 20.5381 3.47229 16.7409 3.47229 12.0001C3.47229 7.26864 7.24929 3.46207 11.9906 3.46207C16.7216 3.46207 20.5281 7.26907 20.5384 12.0001C20.5483 16.7414 16.7314 20.5381 12.0004 20.5381M11.9906 13.8181C12.4723 13.8181 12.7436 13.5468 12.7534 13.0248L12.9043 7.72121C12.9146 7.20864 12.5126 6.82721 11.9803 6.82721C11.4377 6.82721 11.0563 7.19878 11.0661 7.71092L11.1969 13.0248C11.2067 13.5369 11.4883 13.8181 11.9906 13.8181ZM11.9906 17.0825C12.5627 17.0825 13.0749 16.6205 13.0749 16.0381C13.0749 15.4454 12.573 14.9932 11.9906 14.9932C11.3979 14.9932 10.9054 15.4552 10.9054 16.0381C10.9054 16.6106 11.4077 17.0825 11.9906 17.0825Z" fill="black"/>
</svg>
