<svg width="40" height="41" viewBox="0 0 40 41" fill="none" xmlns="http://www.w3.org/2000/svg">
<path fill-rule="evenodd" clip-rule="evenodd" d="M26.6783 15.187C27.4358 15.3888 28.0319 15.988 28.2337 16.7517C28.6 18.1333 28.5969 21.0143 28.5969 21.0143C28.5969 21.0143 28.5969 23.8954 28.2306 25.277C28.0288 26.0376 27.4327 26.6368 26.6751 26.8417C25.3029 27.2111 19.7984 27.2111 19.7984 27.2111C19.7984 27.2111 14.294 27.2111 12.9217 26.8417C12.1642 26.6399 11.5681 26.0407 11.3663 25.277C11 23.8954 11 21.0143 11 21.0143C11 21.0143 11 18.1333 11.3694 16.7486C11.5712 15.988 12.1673 15.3888 12.9249 15.1839C14.2971 14.8145 19.8016 14.8145 19.8016 14.8145C19.8016 14.8145 25.3029 14.8145 26.6783 15.187ZM18.002 18.3965V23.6308L22.603 21.0137L18.002 18.3965Z" fill="#676767"/>
</svg>
