<svg width="42" height="42" viewBox="0 0 42 42" fill="none" xmlns="http://www.w3.org/2000/svg">
<path d="M21 26.7557L26.754 21L21 15.2443L19.796 16.45L23.471 20.125H14.875V21.875H23.471L19.796 25.55L21 26.7557ZM21.0053 36.75C18.8271 36.75 16.7796 36.337 14.8628 35.511C12.9459 34.6838 11.2782 33.5615 9.8595 32.144C8.44083 30.7265 7.31792 29.0605 6.49075 27.146C5.66358 25.2315 5.25 23.1846 5.25 21.0053C5.25 18.8259 5.66358 16.7784 6.49075 14.8628C7.31675 12.9459 8.43733 11.2782 9.8525 9.8595C11.2677 8.44083 12.9343 7.31792 14.8523 6.49075C16.7703 5.66358 18.8177 5.25 20.9947 5.25C23.1717 5.25 25.2192 5.66358 27.1372 6.49075C29.0541 7.31675 30.7218 8.43792 32.1405 9.85425C33.5592 11.2706 34.6821 12.9372 35.5093 14.854C36.3364 16.7708 36.75 18.8177 36.75 20.9947C36.75 23.1717 36.337 25.2192 35.511 27.1372C34.685 29.0553 33.5627 30.723 32.144 32.1405C30.7253 33.558 29.0593 34.6809 27.146 35.5093C25.2327 36.3376 23.1858 36.7512 21.0053 36.75Z" fill="white"/>
</svg>
