<svg width="24" height="24" viewBox="0 0 24 24" fill="none" xmlns="http://www.w3.org/2000/svg">
<g clip-path="url(#clip0_404_899)">
<path d="M22.875 6H22.5V3.75C22.5 1.65 17.85 0 12 0C6.15 0 1.5 1.65 1.5 3.75V6H1.125C0.503906 6 0 6.50344 0 7.125V10.875C0 11.4961 0.503906 12 1.125 12H1.5V19.5C1.5 20.3283 2.17172 21 3 21V22.5C3 23.3283 3.67172 24 4.5 24H6C6.82828 24 7.5 23.3283 7.5 22.5V21H16.5V22.5C16.5 23.3283 17.1717 24 18 24H19.5C20.3283 24 21 23.3283 21 22.5V21H21.3C22.05 21 22.5 20.4 22.5 19.8V12H22.875C23.4961 12 24 11.4961 24 10.875V7.125C24 6.50344 23.4961 6 22.875 6ZM5.25 18.75C4.42172 18.75 3.75 18.0783 3.75 17.25C3.75 16.4217 4.42172 15.75 5.25 15.75C6.07828 15.75 6.75 16.4217 6.75 17.25C6.75 18.0783 6.07828 18.75 5.25 18.75ZM6 13.5C5.17172 13.5 4.5 12.8283 4.5 12V6C4.5 5.17172 5.17172 4.5 6 4.5H18C18.8283 4.5 19.5 5.17172 19.5 6V12C19.5 12.8283 18.8283 13.5 18 13.5H6ZM18.75 18.75C17.9217 18.75 17.25 18.0783 17.25 17.25C17.25 16.4217 17.9217 15.75 18.75 15.75C19.5783 15.75 20.25 16.4217 20.25 17.25C20.25 18.0783 19.5783 18.75 18.75 18.75Z" fill="#5AAF1E"/>
</g>
<defs>
<clipPath id="clip0_404_899">
<rect width="24" height="24" fill="white"/>
</clipPath>
</defs>
</svg>
